<?xml version="1.0" encoding="UTF-8" standalone="no"?><!DOCTYPE svg PUBLIC "-//W3C//DTD SVG 1.1//EN" "http://www.w3.org/Graphics/SVG/1.1/DTD/svg11.dtd"><svg width="100%" height="100%" viewBox="0 0 27 27" version="1.1" xmlns="http://www.w3.org/2000/svg" xmlns:xlink="http://www.w3.org/1999/xlink" xml:space="preserve" xmlns:serif="http://www.serif.com/" style="fill-rule:evenodd;clip-rule:evenodd;stroke-linejoin:round;stroke-miterlimit:1.41421;"><path d="M24.334,11.798c0.369,0 0.713,0.066 1.033,0.198c0.321,0.131 0.6,0.314 0.837,0.546c0.237,0.233 0.423,0.509 0.559,0.83c0.136,0.32 0.204,0.665 0.204,1.033c0,0.343 -0.065,0.676 -0.197,1.001c-0.132,0.325 -0.321,0.61 -0.566,0.856l-9.442,9.441l-4.964,1.238l1.238,-4.964l9.441,-9.428c0.255,-0.255 0.54,-0.444 0.856,-0.566c0.316,-0.123 0.65,-0.185 1.001,-0.185Zm0.671,3.279c0.185,-0.184 0.277,-0.408 0.277,-0.672c0,-0.272 -0.09,-0.493 -0.27,-0.665c-0.18,-0.171 -0.406,-0.256 -0.678,-0.256c-0.123,0 -0.242,0.019 -0.356,0.059c-0.114,0.039 -0.215,0.103 -0.303,0.191l-9.112,9.112l-0.447,1.778l1.777,-0.448l9.112,-9.099Zm-14.892,5.149l1.685,0l-1.685,1.685l-6.255,0l-2.173,-2.173l0,-16.367c0,-0.237 0.044,-0.457 0.132,-0.658c0.088,-0.202 0.209,-0.38 0.362,-0.534c0.154,-0.153 0.332,-0.274 0.534,-0.362c0.201,-0.088 0.421,-0.132 0.658,-0.132l16.855,0c0.237,0 0.456,0.044 0.658,0.132c0.202,0.088 0.38,0.209 0.533,0.362c0.154,0.154 0.275,0.332 0.362,0.534c0.088,0.201 0.132,0.421 0.132,0.658l0,6.742l-1.685,1.685l0,-8.427l-1.686,0l0,8.427l-13.484,0l0,-8.427l-1.685,0l0,15.656l1.198,1.199l0.487,0l0,-6.742l11.799,0l0,1.685l-1.686,1.686l0,-1.686l-8.427,0l0,5.057l1.685,0l0,-3.371l1.686,0l0,3.371Zm-3.371,-10.113l10.113,0l0,-6.742l-10.113,0l0,6.742Z" style="fill:#fff;fill-rule:nonzero;"/></svg>