<?xml version="1.0" encoding="UTF-8" standalone="no"?><!DOCTYPE svg PUBLIC "-//W3C//DTD SVG 1.1//EN" "http://www.w3.org/Graphics/SVG/1.1/DTD/svg11.dtd"><svg width="100%" height="100%" viewBox="0 0 300 300" version="1.1" xmlns="http://www.w3.org/2000/svg" xmlns:xlink="http://www.w3.org/1999/xlink" xml:space="preserve" xmlns:serif="http://www.serif.com/" style="fill-rule:evenodd;clip-rule:evenodd;stroke-linejoin:round;stroke-miterlimit:1.41421;"><path d="M271.399,56.25l-18.75,0l0,215.625c0,3.906 -0.732,7.568 -2.197,10.986c-1.465,3.418 -3.467,6.397 -6.006,8.936c-2.539,2.539 -5.517,4.541 -8.935,6.006c-3.418,1.465 -7.08,2.197 -10.987,2.197l-150,0c-3.906,0 -7.568,-0.732 -10.986,-2.197c-3.418,-1.465 -6.396,-3.467 -8.936,-6.006c-2.539,-2.539 -4.541,-5.518 -6.005,-8.936c-1.465,-3.418 -2.198,-7.08 -2.198,-10.986l0,-215.625l-18.75,0l0,-18.75l75,0l0,-18.75c0,-2.637 0.489,-5.078 1.465,-7.324c0.977,-2.246 2.319,-4.224 4.028,-5.933c1.709,-1.709 3.687,-3.052 5.933,-4.028c2.246,-0.977 4.688,-1.465 7.324,-1.465l56.25,0c2.637,0 5.078,0.488 7.325,1.465c2.246,0.976 4.223,2.319 5.932,4.028c1.709,1.709 3.052,3.687 4.028,5.933c0.977,2.246 1.465,4.687 1.465,7.324l0,18.75l75,0l0,18.75Zm-150,-18.75l56.25,0l0,-18.75l-56.25,0l0,18.75Zm112.5,18.75l-168.75,0l0,215.625c0,2.539 0.928,4.736 2.784,6.592c1.855,1.855 4.052,2.783 6.591,2.783l150,0c2.539,0 4.737,-0.928 6.592,-2.783c1.856,-1.856 2.783,-4.053 2.783,-6.592l0,-215.625Zm-112.5,187.5l-18.75,0l0,-150l18.75,0l0,150Zm37.5,0l-18.75,0l0,-150l18.75,0l0,150Zm37.5,0l-18.75,0l0,-150l18.75,0l0,150Z" style="fill:#fff;fill-rule:nonzero;"/></svg>