<?xml version="1.0" encoding="UTF-8" standalone="no"?><!DOCTYPE svg PUBLIC "-//W3C//DTD SVG 1.1//EN" "http://www.w3.org/Graphics/SVG/1.1/DTD/svg11.dtd">
<svg width="100%" height="100%" viewBox="0 0 27 27" version="1.1" xmlns="http://www.w3.org/2000/svg" xmlns:xlink="http://www.w3.org/1999/xlink" xml:space="preserve" xmlns:serif="http://www.serif.com/">
<path d="M23.59,-0.051c0.238,0 0.458,0.044 0.66,0.132c0.203,0.088 0.381,0.209 0.535,0.364c0.154,0.154 0.275,0.332 0.364,0.535c0.088,0.202 0.132,0.422 0.132,0.66l0,13.103c0,0.273 0.041,0.513 0.125,0.719c0.084,0.207 0.187,0.401 0.31,0.582c0.124,0.18 0.26,0.358 0.41,0.535c0.15,0.176 0.286,0.376 0.409,0.601c0.124,0.224 0.227,0.479 0.311,0.766c0.083,0.286 0.125,0.627 0.125,1.023l0,6.34c0,0.238 -0.044,0.458 -0.132,0.661c-0.088,0.202 -0.209,0.381 -0.363,0.535c-0.154,0.154 -0.332,0.275 -0.535,0.363c-0.203,0.088 -0.423,0.132 -0.66,0.132l-15.216,0l0,-1.691l11.834,0l0,-6.34c0,-0.396 0.042,-0.737 0.126,-1.023c0.083,-0.287 0.187,-0.542 0.31,-0.766c0.123,-0.225 0.26,-0.425 0.41,-0.601c0.149,-0.177 0.286,-0.355 0.409,-0.535c0.123,-0.181 0.227,-0.375 0.31,-0.582c0.084,-0.206 0.126,-0.446 0.126,-0.719l0,-13.103l-16.907,0l0,10.144l-1.69,0l0,-11.835l18.597,0Zm1.691,19.02c0,-0.211 -0.02,-0.396 -0.06,-0.554c-0.039,-0.159 -0.097,-0.304 -0.172,-0.436c-0.074,-0.132 -0.162,-0.262 -0.264,-0.39c-0.101,-0.128 -0.218,-0.266 -0.35,-0.416c-0.132,0.15 -0.249,0.288 -0.35,0.416c-0.101,0.128 -0.189,0.258 -0.264,0.39c-0.075,0.132 -0.132,0.277 -0.172,0.436c-0.039,0.158 -0.059,0.343 -0.059,0.554l0,6.34l1.691,0l0,-6.34Zm-13.526,2.959l-5.072,0l0,5.072l-1.69,0l0,-5.072l-5.072,0l0,-1.691l5.072,0l0,-5.072l1.69,0l0,5.072l5.072,0l0,1.691Z"/>
</svg>
