<?xml version="1.0" encoding="UTF-8" standalone="no"?><!DOCTYPE svg PUBLIC "-//W3C//DTD SVG 1.1//EN" "http://www.w3.org/Graphics/SVG/1.1/DTD/svg11.dtd"><svg width="100%" height="100%" viewBox="0 0 1500 1448" version="1.1" xmlns="http://www.w3.org/2000/svg" xmlns:xlink="http://www.w3.org/1999/xlink" xml:space="preserve" xmlns:serif="http://www.serif.com/" style="fill-rule:evenodd;clip-rule:evenodd;stroke-linejoin:round;stroke-miterlimit:1.41421;"><path d="M1208.31,609.809l0,135.191l-135.194,0l0,47.506l135.194,0l0,135.191l47.5,0l0,-135.191l135.197,0l0,-47.506l-135.197,0l0,-135.191l-47.5,0Z" style="fill:#fff;fill-rule:nonzero;"/><path d="M235.238,0l18.84,1447.39l1000.13,0l0,-411.622c137.416,-11.3 245.791,-126.735 245.791,-267.019c0,-140.287 -108.375,-255.722 -245.791,-267.019l0,-501.734l-1018.97,0Zm62.578,1403.09l-17.697,-1358.78l929.784,0l0,457.428c-137.419,11.297 -245.791,126.732 -245.791,267.019c0,140.284 108.372,255.716 245.791,267.019l0,367.316l-912.087,0Zm1161.88,-634.335c0,125.716 -101.916,227.631 -227.635,227.631c-125.718,0 -227.631,-101.915 -227.631,-227.631c0,-125.719 101.913,-227.634 227.631,-227.634c125.719,0 227.635,101.915 227.635,227.634Z" style="fill:#fff;fill-rule:nonzero;"/><rect x="356.856" y="349.172" width="715.544" height="47.503" style="fill:#fff;fill-rule:nonzero;"/><rect x="356.856" y="500.813" width="579.544" height="47.497" style="fill:#fff;fill-rule:nonzero;"/><rect x="356.856" y="652.444" width="462.619" height="47.5" style="fill:#fff;fill-rule:nonzero;"/><rect x="368.934" y="804.081" width="327.425" height="41.516" style="fill:#fff;fill-rule:nonzero;"/><rect x="0" y="936.694" width="162.353" height="130.313" style="fill:#fff;fill-rule:nonzero;"/><rect x="0" y="759.391" width="162.353" height="130.309" style="fill:#fff;fill-rule:nonzero;"/><path d="M130.309,227.922l-98.265,0c-17.697,0 -32.044,14.34 -32.044,32.04l0,97.819l162.353,0l0,-97.819c0,-17.7 -14.347,-32.04 -32.044,-32.04Z" style="fill:#fff;fill-rule:nonzero;"/><rect x="0" y="582.088" width="162.353" height="130.306" style="fill:#fff;fill-rule:nonzero;"/><path d="M0,1259.05c0,4.185 0.819,8.328 2.413,12.197l49.131,119.388c10.89,26.468 48.375,26.468 59.265,0l49.128,-119.388c1.594,-3.869 2.416,-8.012 2.416,-12.197l0,-145.056l-162.353,0l0,145.056Z" style="fill:#fff;fill-rule:nonzero;"/><rect x="0" y="404.778" width="162.353" height="130.313" style="fill:#fff;fill-rule:nonzero;"/></svg>