<?xml version="1.0" encoding="UTF-8" standalone="no"?><!DOCTYPE svg PUBLIC "-//W3C//DTD SVG 1.1//EN" "http://www.w3.org/Graphics/SVG/1.1/DTD/svg11.dtd"><svg width="100%" height="100%" viewBox="0 0 2113 2257" version="1.1" xmlns="http://www.w3.org/2000/svg" xmlns:xlink="http://www.w3.org/1999/xlink" xml:space="preserve" xmlns:serif="http://www.serif.com/" style="fill-rule:evenodd;clip-rule:evenodd;stroke-linejoin:round;stroke-miterlimit:1.41421;"><g><path d="M501.775,244.441l0,257.331l-60.956,0l-60.957,0l-60.956,0l-60.953,0l60.953,-64.335l60.956,-64.328l60.957,-64.334l60.956,-64.334Zm-368.8,1747.54l0,-339.309l0,-339.309l0,-339.31l0,-339.306l501.775,0l0,-125.534l0,-125.532l0,-125.534l0,-125.531l950.306,0l0,1096.17c3.91,-0.335 7.844,-0.65 11.791,-0.938c3.95,-0.287 7.912,-0.547 11.887,-0.762c3.972,-0.216 7.95,-0.391 11.932,-0.513c3.984,-0.119 7.968,-0.187 11.946,-0.187c7.197,0 14.382,0.171 21.538,0.497c7.159,0.321 14.294,0.796 21.391,1.403c7.1,0.603 14.168,1.34 21.193,2.187c7.025,0.844 14.007,1.8 20.941,2.847l0,-308.331l0,-308.332l0,-308.331l0,-308.331l-291.844,0l-291.84,0l-291.844,0l-291.841,0l-137.578,145.222l-137.575,145.219l-137.575,145.221l-137.578,145.222l0,1544.08l1206.21,0c-8.156,-9.975 -15.965,-20.259 -23.415,-30.825c-7.45,-10.568 -14.534,-21.415 -21.241,-32.528c-6.703,-11.112 -13.028,-22.481 -18.956,-34.093c-5.925,-11.613 -11.453,-23.463 -16.563,-35.529l-248.265,0l-248.266,0l-248.265,0l-248.266,0Z" style="fill:#fff;fill-rule:nonzero;"/><path d="M291.997,1007.99l1125.33,0l0,149.687l-281.331,0l-281.332,0l-281.331,0l-281.331,0l0,-37.422l0,-37.422l0,-37.421l0,-37.422Z" style="fill:#fff;fill-rule:nonzero;"/><path d="M1352.79,1303.46l-265.2,0l-265.197,0l-265.2,0l-265.197,0l0,149.688l896.172,0c11.019,-15.11 22.781,-29.61 35.231,-43.463c12.453,-13.853 25.594,-27.059 39.378,-39.578c13.785,-12.525 28.206,-24.362 43.228,-35.484c15.016,-11.116 30.628,-21.519 46.785,-31.163Z" style="fill:#fff;fill-rule:nonzero;"/><path d="M291.997,1762.12l790.662,0c0.332,-13.022 1.104,-25.935 2.304,-38.713c1.196,-12.781 2.821,-25.428 4.859,-37.922c2.041,-12.496 4.494,-24.837 7.347,-37.003c2.85,-12.168 6.109,-24.165 9.75,-35.962l-203.728,0l-203.732,0l-203.731,0l-203.731,0l0,149.6Z" style="fill:#fff;fill-rule:nonzero;"/><path d="M1861.77,1847.89l-39.488,0l-39.49,0l-39.488,0l-39.491,0l0,158.312l-35.6,0l-35.6,0l-35.6,0l-35.6,0l0,-39.578l0,-39.578l0,-39.578l0,-39.578l-39.49,0l-39.488,0l-39.487,0l-39.491,0l0,-35.51l0,-35.509l0,-35.513l0,-35.509l157.956,0l0,-39.578l0,-39.575l0,-39.578l0,-39.578l142.4,0l0,158.309l157.957,0l0,142.041Zm-229.154,-550.663c-66.225,0 -129.299,13.435 -186.668,37.719c-57.366,24.281 -109.019,59.416 -152.397,102.816c-43.378,43.4 -78.478,95.068 -102.734,152.415c-24.257,57.35 -37.666,120.385 -37.666,186.519c0,66.241 13.409,129.338 37.666,186.716c24.256,57.378 59.356,109.043 102.734,152.421c43.378,43.385 95.031,78.491 152.397,102.744c57.369,24.256 120.443,37.669 186.668,37.669c66.154,0 129.204,-13.413 186.566,-37.669c57.36,-24.253 109.034,-59.359 152.441,-102.744c43.406,-43.378 78.54,-95.043 102.825,-152.421c24.284,-57.378 37.718,-120.475 37.718,-186.716c0,-66.134 -13.434,-129.169 -37.718,-186.519c-24.285,-57.347 -59.419,-109.015 -102.825,-152.415c-43.407,-43.4 -95.081,-78.535 -152.441,-102.816c-57.362,-24.284 -120.412,-37.719 -186.566,-37.719Z" style="fill:#fff;fill-rule:nonzero;"/></g></svg>