<?xml version="1.0" encoding="UTF-8" standalone="no"?><!DOCTYPE svg PUBLIC "-//W3C//DTD SVG 1.1//EN" "http://www.w3.org/Graphics/SVG/1.1/DTD/svg11.dtd"><svg width="100%" height="100%" viewBox="0 0 27 27" version="1.1" xmlns="http://www.w3.org/2000/svg" xmlns:xlink="http://www.w3.org/1999/xlink" xml:space="preserve" xmlns:serif="http://www.serif.com/" style="fill-rule:evenodd;clip-rule:evenodd;stroke-linejoin:round;stroke-miterlimit:1.41421;"><path d="M14.558,0.05c0.158,-0.002 0.305,0.026 0.44,0.083c0.136,0.058 0.255,0.137 0.359,0.238c0.103,0.102 0.185,0.22 0.245,0.354c0.06,0.134 0.091,0.28 0.093,0.438l0.153,14.624l-13.737,0.144l-2.034,-2l-0.132,-12.603c-0.001,-0.158 0.027,-0.305 0.084,-0.44c0.057,-0.135 0.136,-0.255 0.238,-0.359c0.101,-0.103 0.219,-0.185 0.353,-0.245c0.134,-0.06 0.28,-0.091 0.439,-0.092l13.499,-0.142Zm-11.179,6.868l9,-0.095l-0.059,-5.624l-9,0.094l0.059,5.625Zm6.797,4.429l-5.625,0.059l0.036,3.374l1.125,-0.011l-0.024,-2.25l1.125,-0.012l0.023,2.25l3.375,-0.036l-0.035,-3.374Zm4.394,-10.172l-1.125,0.012l0.07,6.749l-11.249,0.118l-0.071,-6.749l-1.125,0.011l0.128,12.137l1.367,1.349l0.897,-0.01l-0.047,-4.5l7.874,-0.082l0.047,4.5l3.375,-0.036l-0.141,-13.499Z" style="fill:#fffefe;fill-rule:nonzero;"/><path d="M25.425,10.064c0.158,-0.002 0.305,0.026 0.441,0.083c0.135,0.058 0.254,0.137 0.358,0.238c0.104,0.102 0.185,0.22 0.245,0.354c0.06,0.134 0.091,0.28 0.093,0.438l0.153,14.625l-13.737,0.143l-2.033,-2l-0.132,-12.603c-0.002,-0.158 0.026,-0.305 0.083,-0.44c0.057,-0.135 0.137,-0.255 0.238,-0.359c0.101,-0.103 0.219,-0.185 0.353,-0.245c0.135,-0.06 0.281,-0.091 0.439,-0.092l13.499,-0.142Zm-11.179,6.868l9,-0.095l-0.059,-5.624l-8.999,0.094l0.058,5.625Zm6.797,4.429l-5.624,0.059l0.035,3.374l1.125,-0.011l-0.024,-2.25l1.125,-0.012l0.024,2.25l3.375,-0.036l-0.036,-3.374Zm4.394,-10.172l-1.125,0.012l0.071,6.749l-11.25,0.118l-0.07,-6.749l-1.125,0.011l0.127,12.137l1.367,1.349l0.897,-0.01l-0.047,-4.5l7.874,-0.082l0.047,4.5l3.375,-0.036l-0.141,-13.499Z" style="fill:#fffefe;fill-rule:nonzero;"/></svg>