<?xml version="1.0" encoding="UTF-8" standalone="no"?><!DOCTYPE svg PUBLIC "-//W3C//DTD SVG 1.1//EN" "http://www.w3.org/Graphics/SVG/1.1/DTD/svg11.dtd"><svg width="100%" height="100%" viewBox="0 0 300 300" version="1.1" xmlns="http://www.w3.org/2000/svg" xmlns:xlink="http://www.w3.org/1999/xlink" xml:space="preserve" xmlns:serif="http://www.serif.com/" style="fill-rule:evenodd;clip-rule:evenodd;stroke-linejoin:round;stroke-miterlimit:1.41421;"><path d="M278.517,-0.296c3.024,0 5.823,0.56 8.399,1.679c2.575,1.12 4.843,2.66 6.802,4.619c1.96,1.96 3.5,4.228 4.619,6.803c1.12,2.576 1.68,5.375 1.68,8.399l0,279.5l-262.535,0l-38.465,-38.633l0,-240.867c0,-3.024 0.56,-5.823 1.68,-8.399c1.12,-2.575 2.659,-4.843 4.619,-6.803c1.96,-1.959 4.227,-3.499 6.803,-4.619c2.575,-1.119 5.375,-1.679 8.398,-1.679l258,0Zm-215,129l172,0l0,-107.5l-172,0l0,107.5Zm129,86l-107.5,0l0,64.5l21.5,0l0,-43l21.5,0l0,43l64.5,0l0,-64.5Zm86,-193.5l-21.5,0l0,129l-215,0l0,-129l-21.5,0l0,231.965l25.867,26.035l17.133,0l0,-86l150.5,0l0,86l64.5,0l0,-258Z" style="fill:#fffefe;fill-rule:nonzero;"/></svg>