<?xml version="1.0" encoding="UTF-8" standalone="no"?><!DOCTYPE svg PUBLIC "-//W3C//DTD SVG 1.1//EN" "http://www.w3.org/Graphics/SVG/1.1/DTD/svg11.dtd"><svg width="100%" height="100%" viewBox="0 0 4375 3282" version="1.1" xmlns="http://www.w3.org/2000/svg" xmlns:xlink="http://www.w3.org/1999/xlink" xml:space="preserve" xmlns:serif="http://www.serif.com/" style="fill-rule:evenodd;clip-rule:evenodd;stroke-linejoin:round;stroke-miterlimit:1.41421;"><g><path d="M4375,3007.81c0,150.399 -123.037,273.437 -273.438,273.437l-3828.13,0c-150.403,0 -273.437,-123.038 -273.437,-273.438c0,-150.403 123.034,-273.437 273.438,-273.437l3828.12,0c150.401,0 273.438,123.034 273.438,273.438Z" style="fill:#fff;fill-rule:nonzero;"/><path d="M4375,1640.63c0,150.4 -123.037,273.438 -273.438,273.438l-3828.13,-0.001c-150.403,0 -273.437,-123.037 -273.437,-273.437c0,-150.403 123.034,-273.438 273.438,-273.438l3828.12,0.001c150.401,0 273.438,123.034 273.438,273.437Z" style="fill:#fff;fill-rule:nonzero;"/><path d="M4375,273.438c0,150.399 -123.037,273.437 -273.438,273.437l-3828.13,0c-150.403,0 -273.437,-123.038 -273.437,-273.438c0,-150.399 123.034,-273.437 273.438,-273.437l3828.12,0c150.401,0 273.438,123.038 273.438,273.438Z" style="fill:#fff;fill-rule:nonzero;"/></g></svg>