<?xml version="1.0" encoding="UTF-8" standalone="no"?><!DOCTYPE svg PUBLIC "-//W3C//DTD SVG 1.1//EN" "http://www.w3.org/Graphics/SVG/1.1/DTD/svg11.dtd"><svg width="100%" height="100%" viewBox="0 0 12 12" version="1.1" xmlns="http://www.w3.org/2000/svg" xmlns:xlink="http://www.w3.org/1999/xlink" xml:space="preserve" xmlns:serif="http://www.serif.com/" style="fill-rule:evenodd;clip-rule:evenodd;stroke-linejoin:round;stroke-miterlimit:1.41421;"><path d="M9.937,0c0.106,0 0.203,0.02 0.293,0.059c0.09,0.039 0.169,0.092 0.237,0.161c0.069,0.068 0.122,0.147 0.161,0.237c0.04,0.09 0.059,0.188 0.059,0.293l0,5.813c0,0.121 0.019,0.227 0.056,0.319c0.037,0.092 0.083,0.178 0.137,0.258c0.055,0.08 0.116,0.159 0.182,0.237c0.066,0.078 0.127,0.167 0.182,0.267c0.054,0.099 0.1,0.212 0.137,0.339c0.038,0.127 0.056,0.279 0.056,0.454l0,2.813c0,0.105 -0.019,0.203 -0.059,0.293c-0.039,0.09 -0.092,0.169 -0.161,0.237c-0.068,0.069 -0.147,0.122 -0.237,0.161c-0.09,0.039 -0.187,0.059 -0.293,0.059l-5.484,0c0.242,-0.223 0.451,-0.473 0.627,-0.75l3.357,0l0,-2.813c0,-0.175 0.019,-0.327 0.056,-0.454c0.037,-0.127 0.083,-0.24 0.137,-0.339c0.055,-0.1 0.116,-0.189 0.182,-0.267c0.066,-0.078 0.127,-0.157 0.182,-0.237c0.054,-0.08 0.1,-0.166 0.137,-0.258c0.038,-0.092 0.056,-0.198 0.056,-0.319l0,-5.813l-7.5,0l0,5.098c-0.125,0.015 -0.251,0.036 -0.378,0.061c-0.127,0.026 -0.251,0.06 -0.372,0.103l0,-6.012l8.25,0Zm0.75,8.438c0,-0.094 -0.009,-0.176 -0.026,-0.247c-0.018,-0.07 -0.043,-0.134 -0.076,-0.193c-0.034,-0.059 -0.073,-0.116 -0.118,-0.173c-0.045,-0.056 -0.096,-0.118 -0.155,-0.184c-0.059,0.066 -0.11,0.128 -0.155,0.184c-0.045,0.057 -0.084,0.114 -0.117,0.173c-0.034,0.059 -0.059,0.123 -0.077,0.193c-0.017,0.071 -0.026,0.153 -0.026,0.247l0,2.812l0.75,0l0,-2.813Zm-7.875,-0.937c-0.23,0 -0.448,0.039 -0.653,0.117c-0.205,0.078 -0.39,0.187 -0.554,0.325c-0.164,0.139 -0.301,0.304 -0.41,0.496c-0.109,0.191 -0.184,0.4 -0.223,0.626l-0.744,-0.128c0.055,-0.317 0.16,-0.608 0.317,-0.873c0.156,-0.266 0.348,-0.497 0.577,-0.692c0.228,-0.195 0.487,-0.348 0.776,-0.457c0.289,-0.109 0.594,-0.164 0.914,-0.164c0.356,0 0.695,0.069 1.02,0.208c0.324,0.139 0.609,0.337 0.855,0.595l0,-0.803l0.75,0l0,2.25l-2.25,0l0,-0.75l1.113,0c-0.175,-0.234 -0.394,-0.418 -0.656,-0.551c-0.262,-0.133 -0.539,-0.199 -0.832,-0.199Zm2.584,2.314c-0.055,0.317 -0.16,0.608 -0.316,0.873c-0.157,0.266 -0.349,0.497 -0.577,0.692c-0.229,0.195 -0.488,0.348 -0.777,0.457c-0.289,0.109 -0.594,0.164 -0.914,0.164c-0.355,0 -0.695,-0.069 -1.019,-0.208c-0.325,-0.139 -0.61,-0.337 -0.856,-0.595l0,0.803l-0.75,0l0,-2.25l2.25,0l0,0.75l-1.113,0c0.176,0.234 0.394,0.418 0.656,0.551c0.262,0.133 0.539,0.199 0.832,0.199c0.227,0 0.443,-0.039 0.65,-0.117c0.208,-0.078 0.393,-0.187 0.557,-0.325c0.164,-0.139 0.301,-0.304 0.41,-0.495c0.11,-0.192 0.184,-0.401 0.223,-0.627l0.744,0.128Z" style="fill:#fff;fill-rule:nonzero;"/></svg>