<?xml version="1.0" encoding="UTF-8" standalone="no"?><!DOCTYPE svg PUBLIC "-//W3C//DTD SVG 1.1//EN" "http://www.w3.org/Graphics/SVG/1.1/DTD/svg11.dtd">
<svg width="100%" height="100%" viewBox="0 0 491 379" version="1.1" xmlns="http://www.w3.org/2000/svg" xmlns:xlink="http://www.w3.org/1999/xlink" xml:space="preserve" xmlns:serif="http://www.serif.com/" style="fill-rule:evenodd;clip-rule:evenodd;stroke-linejoin:round;stroke-miterlimit:1.41421;"><g>
<path Fill="black" d="M372.629,174.893l-77.633,-72.133c-2.775,-2.578 -6.988,-2.621 -9.815,-0.252l-0.004,-0.004l-18.417,15.406c-1.217,-16.199 -5.539,-31.26 -12.229,-44.221l30.244,-24.917l49.05,38.401c1.359,1.063 2.972,1.579 4.572,1.579c2.205,0 4.387,-0.978 5.852,-2.848c2.527,-3.229 1.96,-7.896 -1.269,-10.425l-53.746,-42.077c-2.798,-2.189 -6.668,-2.052 -9.298,0.118l-0.002,-0.002l-0.076,0.062c-0.003,0.004 -0.007,0.006 -0.011,0.01l-33.167,27.325c-6.898,-9.521 -15.251,-17.347 -24.627,-22.901c-6.582,-22.654 -19.319,-38.014 -33.958,-38.014c-14.803,0 -27.661,15.713 -34.176,38.791c-8.98,5.573 -16.987,13.242 -23.623,22.496l-32.33,-26.636c-0.004,-0.003 -0.008,-0.006 -0.012,-0.01l-0.076,-0.062l-0.002,0.002c-2.629,-2.171 -6.499,-2.308 -9.297,-0.118l-53.746,42.078c-3.229,2.528 -3.797,7.194 -1.269,10.423c1.464,1.871 3.646,2.849 5.852,2.849c1.6,0 3.213,-0.516 4.572,-1.579l49.05,-38.401l29.471,24.28c-6.809,13.341 -11.131,28.874 -12.145,45.574l-20.541,-17.183l-0.004,0.004c-2.827,-2.369 -7.04,-2.326 -9.815,0.252l-77.633,72.133c-3.004,2.791 -3.177,7.489 -0.385,10.494c1.463,1.574 3.448,2.37 5.442,2.37c1.809,0 3.622,-0.657 5.052,-1.985l72.837,-67.676l25.395,21.245c1.656,17.082 6.786,32.814 14.474,46.051l-30.828,0c-0.021,0 -0.041,0.001 -0.062,0l-0.078,0l0,0.003c-2.85,0.001 -5.567,1.648 -6.793,4.422l-37.127,84.045c-1.656,3.751 0.04,8.136 3.792,9.792c0.976,0.432 1.995,0.636 2.996,0.636c2.851,0 5.57,-1.652 6.797,-4.427l35.172,-79.62l36.728,0c13.947,15.967 32.49,25.703 52.843,25.703c20.354,0 38.897,-9.736 52.844,-25.703l38.701,0l35.173,79.62c1.226,2.775 3.946,4.427 6.796,4.427c1.002,0 2.02,-0.204 2.996,-0.636c3.752,-1.656 5.449,-6.041 3.793,-9.792l-37.128,-84.045c-1.225,-2.774 -3.942,-4.421 -6.792,-4.422l0,-0.003l-0.078,0c-0.021,0.001 -0.042,0 -0.063,0l-32.801,0c7.994,-13.763 13.224,-30.22 14.657,-48.089l22.959,-19.207l72.837,67.676c1.43,1.328 3.244,1.985 5.052,1.985c1.994,0 3.98,-0.796 5.442,-2.37c2.792,-3.005 2.619,-7.703 -0.385,-10.494Z" />
<path Fill="black" d="M483.588,368.623l0,0c-10.292,12.145 -28.648,13.66 -40.793,3.369l-78.229,-66.295c-12.144,-10.292 -13.66,-28.648 -3.369,-40.793c10.292,-12.144 28.649,-13.66 40.794,-3.369l78.228,66.295c12.144,10.292 13.661,28.648 3.369,40.793Z"/>
<path Fill="black" d="M281.292,268.465c-36.081,0 -65.329,-29.249 -65.329,-65.329c0,-36.08 29.248,-65.329 65.329,-65.329c36.08,0 65.328,29.249 65.328,65.329c0,36.08 -29.248,65.329 -65.328,65.329Zm0,-174.486c-60.286,0 -109.157,48.871 -109.157,109.157c0,60.286 48.871,109.156 109.157,109.156c60.285,0 109.156,-48.87 109.156,-109.156c0,-60.286 -48.871,-109.157 -109.156,-109.157Z"/>
<path Fill="black" d="M281.292,141.942c-33.743,0 -61.194,27.451 -61.194,61.194c0,33.743 27.451,61.194 61.194,61.194c33.742,0 61.194,-27.451 61.194,-61.194c0,-33.743 -27.452,-61.194 -61.194,-61.194Zm0,130.658c-38.302,0 -69.464,-31.162 -69.464,-69.464c0,-38.302 31.162,-69.464 69.464,-69.464c38.301,0 69.463,31.162 69.463,69.464c0,38.302 -31.162,69.464 -69.463,69.464Zm0,-174.486c-57.91,0 -105.022,47.112 -105.022,105.022c0,57.91 47.112,105.022 105.022,105.022c57.909,0 105.021,-47.112 105.021,-105.022c0,-57.91 -47.112,-105.022 -105.021,-105.022Zm0,218.313c-62.47,0 -113.292,-50.822 -113.292,-113.291c0,-62.469 50.822,-113.291 113.292,-113.291c62.469,0 113.291,50.822 113.291,113.291c0,62.469 -50.822,113.291 -113.291,113.291Z" />
</g></svg>
