<?xml version="1.0" encoding="UTF-8" standalone="no"?><!DOCTYPE svg PUBLIC "-//W3C//DTD SVG 1.1//EN" "http://www.w3.org/Graphics/SVG/1.1/DTD/svg11.dtd"><svg width="100%" height="100%" viewBox="0 0 768 768" version="1.1" xmlns="http://www.w3.org/2000/svg" xmlns:xlink="http://www.w3.org/1999/xlink" xml:space="preserve" xmlns:serif="http://www.serif.com/" style="fill-rule:evenodd;clip-rule:evenodd;stroke-linejoin:round;stroke-miterlimit:1.41421;"><g id="LayoutRoot"><path d="M682.967,586.174l-597.937,0c-9.589,0 -17.363,-7.773 -17.363,-17.361l0,-385.296c0,-9.59 7.774,-17.363 17.363,-17.363l597.937,0c9.59,0 17.361,7.773 17.361,17.363l0,385.296c0,9.588 -7.771,17.361 -17.361,17.361Z" style="fill:#282c36;fill-rule:nonzero;"/><rect x="0" y="574.978" width="768" height="14.927" style="fill:#dfdfdd;fill-rule:nonzero;"/><path d="M768,589.905l-768,0c19.721,7.889 40.766,11.941 62.007,11.941l643.984,0c21.241,0 42.285,-4.052 62.009,-11.941Z" style="fill:#8a8c8f;fill-rule:nonzero;"/><rect x="91.427" y="207.772" width="585.143" height="334.367" style="fill:#2c4556;fill-rule:nonzero;"/><rect x="91.427" y="207.772" width="585.143" height="4.525" style="fill:#152733;fill-rule:nonzero;"/><path d="M702.756,582.441c0,-1.341 -1.087,-2.427 -2.428,-2.427c-1.338,0 -2.425,1.086 -2.425,2.427c0,1.341 1.087,2.428 2.425,2.428c1.341,0 2.428,-1.087 2.428,-2.428Z" style="fill:#1897d5;fill-rule:nonzero;"/><path d="M714.51,582.441c0,-1.341 -1.089,-2.427 -2.428,-2.427c-1.341,0 -2.427,1.086 -2.427,2.427c0,1.341 1.086,2.428 2.427,2.428c1.339,0 2.428,-1.087 2.428,-2.428Z" style="fill:#5c5e61;fill-rule:nonzero;"/><path d="M726.261,582.441c0,-1.341 -1.086,-2.427 -2.427,-2.427c-1.341,0 -2.428,1.086 -2.428,2.427c0,1.341 1.087,2.428 2.428,2.428c1.341,0 2.427,-1.087 2.427,-2.428Z" style="fill:#5c5e61;fill-rule:nonzero;"/><path d="M254.703,340.316l-80.822,0c-1.839,0 -3.332,-1.491 -3.332,-3.331l0,-12.455c0,-1.841 1.493,-3.333 3.332,-3.333l80.822,0c1.841,0 3.331,1.492 3.331,3.333l0,12.455c0,1.84 -1.49,3.331 -3.331,3.331Z" style="fill:#f5f6f7;fill-rule:nonzero;"/><path d="M217.768,368.995l-44.104,0c-1.72,0 -3.115,-1.394 -3.115,-3.114l0,-12.89c0,-1.72 1.395,-3.115 3.115,-3.115l44.104,0c1.72,0 3.115,1.395 3.115,3.115l0,12.89c0,1.72 -1.395,3.114 -3.115,3.114Z" style="fill:#dbd073;fill-rule:nonzero;"/><path d="M193.87,398.108l-20.206,0c-1.72,0 -3.115,-1.395 -3.115,-3.115l0,-12.89c0,-1.72 1.395,-3.114 3.115,-3.114l20.206,0c1.72,0 3.112,1.394 3.112,3.114l0,12.89c0,1.72 -1.392,3.115 -3.112,3.115Z" style="fill:#e28755;fill-rule:nonzero;"/><path d="M193.87,486.967l-20.206,0c-1.72,0 -3.115,-1.395 -3.115,-3.115l0,-12.889c0,-1.721 1.395,-3.115 3.115,-3.115l20.206,0c1.72,0 3.112,1.394 3.112,3.115l0,12.889c0,1.72 -1.392,3.115 -3.112,3.115Z" style="fill:#e28755;fill-rule:nonzero;"/><path d="M503.286,458.722l-70.936,0c-1.721,0 -3.113,-1.394 -3.113,-3.112l0,-12.892c0,-1.72 1.392,-3.115 3.113,-3.115l70.936,0c1.72,0 3.114,1.395 3.114,3.115l0,12.892c0,1.718 -1.394,3.112 -3.114,3.112Z" style="fill:#e28755;fill-rule:nonzero;"/><path d="M644.596,458.722l-23.807,0c-1.72,0 -3.115,-1.394 -3.115,-3.112l0,-12.892c0,-1.72 1.395,-3.115 3.115,-3.115l23.807,0c1.72,0 3.114,1.395 3.114,3.115l0,12.892c0,1.718 -1.394,3.112 -3.114,3.112Z" style="fill:#f5f6f7;fill-rule:nonzero;"/><path d="M410.77,458.722l-21.692,0c-1.718,0 -3.112,-1.394 -3.112,-3.112l0,-12.892c0,-1.72 1.394,-3.115 3.112,-3.115l21.692,0c1.72,0 3.112,1.395 3.112,3.115l0,12.892c0,1.718 -1.392,3.112 -3.112,3.112Z" style="fill:#64b045;fill-rule:nonzero;"/><path d="M603.154,458.722l-80.785,0c-1.72,0 -3.115,-1.394 -3.115,-3.112l0,-12.892c0,-1.72 1.395,-3.115 3.115,-3.115l80.785,0c1.72,0 3.114,1.395 3.114,3.115l0,12.892c0,1.718 -1.394,3.112 -3.114,3.112Z" style="fill:#4b82c3;fill-rule:nonzero;"/><path d="M217.478,428.307l-43.814,0c-1.72,0 -3.115,-1.395 -3.115,-3.115l0,-12.889c0,-1.721 1.395,-3.115 3.115,-3.115l43.814,0c1.72,0 3.115,1.394 3.115,3.115l0,12.889c0,1.72 -1.395,3.115 -3.115,3.115Z" style="fill:#e28755;fill-rule:nonzero;"/><path d="M255.283,398.108l-42.078,0c-1.72,0 -3.115,-1.395 -3.115,-3.115l0,-12.89c0,-1.72 1.395,-3.114 3.115,-3.114l42.078,0c1.72,0 3.113,1.394 3.113,3.114l0,12.89c0,1.72 -1.393,3.115 -3.113,3.115Z" style="fill:#f5f6f7;fill-rule:nonzero;"/><path d="M366.918,458.722l-143.284,0c-1.721,0 -3.115,-1.394 -3.115,-3.112l0,-12.892c0,-1.72 1.394,-3.115 3.115,-3.115l143.284,0c1.72,0 3.115,1.395 3.115,3.115l0,12.892c0,1.718 -1.395,3.112 -3.115,3.112Z" style="fill:#f5f6f7;fill-rule:nonzero;"/><path d="M353.883,398.108l-80.097,0c-1.72,0 -3.114,-1.395 -3.114,-3.115l0,-12.89c0,-1.72 1.394,-3.114 3.114,-3.114l80.097,0c1.721,0 3.113,1.394 3.113,3.114l0,12.89c0,1.72 -1.392,3.115 -3.113,3.115Z" style="fill:#4b82c3;fill-rule:nonzero;"/><path d="M265.493,310.045l-138.612,0c-1.721,0 -3.115,-1.394 -3.115,-3.115l0,-12.889c0,-1.72 1.394,-3.115 3.115,-3.115l138.612,0c1.72,0 3.115,1.395 3.115,3.115l0,12.889c0,1.721 -1.395,3.115 -3.115,3.115Z" style="fill:#4b82c3;fill-rule:nonzero;"/><path d="M304.891,368.995l-68.437,0c-1.72,0 -3.115,-1.394 -3.115,-3.114l0,-12.89c0,-1.72 1.395,-3.115 3.115,-3.115l68.437,0c1.72,0 3.113,1.395 3.113,3.115l0,12.89c0,1.72 -1.393,3.114 -3.113,3.114Z" style="fill:#f5f6f7;fill-rule:nonzero;"/><path d="M297.575,340.316l-28.677,0c-1.841,0 -3.331,-1.491 -3.331,-3.331l0,-12.455c0,-1.841 1.49,-3.333 3.331,-3.333l28.677,0c1.841,0 3.334,1.492 3.334,3.333l0,12.455c0,1.84 -1.493,3.331 -3.334,3.331Z" style="fill:#64ad45;fill-rule:nonzero;"/><path d="M131.856,253.284l3.911,0l0.627,-3.86l-3.913,0l-0.625,3.86Zm-3.991,7.198l0.68,-4.356l-3.601,0l0.444,-2.842l3.599,0l0.627,-3.86l-3.599,0l0.417,-2.843l3.624,0l0.705,-4.355l2.869,0l-0.705,4.355l3.911,0l0.705,-4.355l2.843,0l-0.678,4.355l3.623,0l-0.469,2.843l-3.598,0l-0.625,3.86l3.625,0l-0.444,2.842l-3.625,0l-0.705,4.356l-2.843,0l0.705,-4.356l-3.938,0l-0.676,4.356l-2.871,0Z" style="fill:#fff;fill-rule:nonzero;"/><path d="M148.619,242.226l5.007,0l-2.738,12.18l-3.364,0l1.095,-12.18Zm-0.051,13.979c1.251,0 2.267,1.017 2.267,2.295c0,1.252 -1.016,2.267 -2.267,2.267c-1.252,0 -2.269,-1.015 -2.269,-2.267c0,-1.278 1.017,-2.295 2.269,-2.295Z" style="fill:#fff;fill-rule:nonzero;"/><path d="M152.762,264.132l14.813,-24.304l3.782,0l-14.84,24.304l-3.755,0Z" style="fill:#fff;fill-rule:nonzero;"/><path d="M175.891,252.24l-0.549,3.469c0.522,1.018 1.852,1.903 3.287,1.903c1.044,0 1.929,-0.39 2.659,-1.146c0.73,-0.784 1.096,-1.747 1.096,-2.894c0,-1.957 -1.279,-3.235 -3.129,-3.235c-1.332,0 -2.635,0.783 -3.364,1.903Zm-1.305,8.242l-3.677,0l2.896,-18.256l3.677,0l-1.096,6.756c1.174,-1.227 2.606,-1.854 4.329,-1.854c1.642,0 2.947,0.576 3.938,1.749c0.99,1.174 1.486,2.609 1.486,4.329c0,2.008 -0.625,3.779 -1.904,5.319c-1.251,1.539 -2.92,2.296 -4.98,2.296c-2.01,0 -3.652,-0.991 -4.408,-2.062l-0.261,1.723Z" style="fill:#fff;fill-rule:nonzero;"/><path d="M193.41,241.809c1.225,0 2.216,0.964 2.216,2.215c0,1.228 -0.991,2.192 -2.216,2.192c-1.225,0 -2.191,-0.964 -2.191,-2.192c0,-1.251 0.966,-2.215 2.191,-2.215Zm-0.705,18.673l-3.677,0l2.035,-13.015l3.677,0l-2.035,13.015Z" style="fill:#fff;fill-rule:nonzero;"/><path d="M210.568,260.482l-3.677,0l1.042,-6.52c0.078,-0.654 0.132,-1.071 0.132,-1.305c0,-1.381 -0.913,-2.164 -2.165,-2.164c-1.227,0 -2.425,0.729 -3.077,1.747l-1.356,8.242l-3.677,0l2.033,-13.015l3.677,0l-0.235,1.515c1.174,-1.227 2.609,-1.854 4.356,-1.854c2.635,0 4.25,1.723 4.25,4.331c0,0.495 -0.051,1.12 -0.183,1.876l-1.12,7.147Z" style="fill:#fff;fill-rule:nonzero;"/><path d="M212.179,264.132l14.813,-24.304l3.781,0l-14.839,24.304l-3.755,0Z" style="fill:#fff;fill-rule:nonzero;"/><path d="M235.307,252.24l-0.546,3.469c0.519,1.018 1.851,1.903 3.284,1.903c1.044,0 1.93,-0.39 2.662,-1.146c0.729,-0.784 1.093,-1.747 1.093,-2.894c0,-1.957 -1.276,-3.235 -3.128,-3.235c-1.33,0 -2.635,0.783 -3.365,1.903Zm-1.303,8.242l-3.677,0l2.894,-18.256l3.677,0l-1.095,6.756c1.173,-1.227 2.608,-1.854 4.328,-1.854c1.644,0 2.947,0.576 3.938,1.749c0.991,1.174 1.486,2.609 1.486,4.329c0,2.008 -0.625,3.779 -1.903,5.319c-1.252,1.539 -2.921,2.296 -4.98,2.296c-2.008,0 -3.653,-0.991 -4.409,-2.062l-0.259,1.723Z" style="fill:#fff;fill-rule:nonzero;"/><path d="M257.26,255.343c-0.757,-0.52 -1.72,-0.781 -2.869,-0.781c-1.564,0 -2.687,0.652 -2.687,1.904c0,1.042 0.913,1.564 2.296,1.564c1.174,0 2.374,-0.574 2.999,-1.33l0.261,-1.357Zm4.955,2.243l-0.417,2.661c-0.495,0.313 -1.147,0.469 -1.93,0.469c-1.591,0 -2.53,-0.547 -2.818,-1.618c-1.173,1.149 -2.633,1.723 -4.328,1.723c-2.843,0 -4.668,-1.669 -4.668,-4.043c0,-1.435 0.522,-2.555 1.564,-3.365c1.071,-0.807 2.347,-1.225 3.833,-1.225c1.54,0 2.923,0.34 4.148,0.991c0.078,-0.495 0.105,-0.808 0.105,-0.939c0,-1.408 -1.096,-2.111 -3.313,-2.111c-1.357,0 -2.66,0.286 -3.912,0.886l0.469,-3.052c1.278,-0.547 2.818,-0.835 4.565,-0.835c1.696,0 3.077,0.366 4.199,1.122c1.12,0.757 1.669,1.904 1.669,3.494c0,0.393 -0.054,0.913 -0.183,1.564l-0.417,2.531c-0.078,0.522 -0.13,0.861 -0.13,1.017c0,0.573 0.313,0.861 0.911,0.861c0.209,0 0.417,-0.051 0.653,-0.131Z" style="fill:#fff;fill-rule:nonzero;"/><path d="M276.787,251.666c-1.434,-1.042 -2.974,-1.564 -4.667,-1.564c-1.384,0 -2.087,0.339 -2.087,1.042c0,0.288 0.157,0.549 0.496,0.732c0.339,0.181 1.095,0.444 2.32,0.808c2.608,0.756 3.887,1.878 3.887,3.755c0,1.434 -0.6,2.503 -1.774,3.26c-1.174,0.756 -2.557,1.122 -4.148,1.122c-2.215,0 -4.562,-0.627 -5.892,-1.54l0.468,-3.103c1.123,0.834 3.104,1.642 5.373,1.642c1.486,0 2.216,-0.364 2.216,-1.12c0,-0.339 -0.235,-0.625 -0.859,-0.861c-0.601,-0.286 -0.862,-0.34 -1.723,-0.625c-2.816,-0.835 -4.224,-1.879 -4.224,-3.653c0,-1.432 0.547,-2.53 1.669,-3.284c1.123,-0.756 2.504,-1.149 4.148,-1.149c2.138,0 3.911,0.498 5.293,1.486l-0.496,3.052Z" style="fill:#fff;fill-rule:nonzero;"/><path d="M292.847,260.482l-3.677,0l1.044,-6.52c0.076,-0.654 0.13,-1.071 0.13,-1.305c0,-1.381 -0.915,-2.164 -2.167,-2.164c-1.225,0 -2.423,0.729 -3.074,1.747l-1.359,8.242l-3.675,0l2.894,-18.256l3.677,0l-1.095,6.756c1.173,-1.227 2.606,-1.854 4.355,-1.854c2.635,0 4.25,1.723 4.25,4.331c0,0.495 -0.051,1.12 -0.183,1.876l-1.12,7.147Z" style="fill:#fff;fill-rule:nonzero;"/><rect x="0" y="580.576" width="691.544" height="3.733" style="fill:#282c36;fill-rule:nonzero;"/><rect x="732.312" y="580.576" width="35.688" height="3.733" style="fill:#282c36;fill-rule:nonzero;"/></g></svg>