<?xml version="1.0" encoding="UTF-8" standalone="no"?><!DOCTYPE svg PUBLIC "-//W3C//DTD SVG 1.1//EN" "http://www.w3.org/Graphics/SVG/1.1/DTD/svg11.dtd"><svg width="100%" height="100%" viewBox="0 0 1076 881" version="1.1" xmlns="http://www.w3.org/2000/svg" xmlns:xlink="http://www.w3.org/1999/xlink" xml:space="preserve" xmlns:serif="http://www.serif.com/" style="fill-rule:evenodd;clip-rule:evenodd;stroke-linejoin:round;stroke-miterlimit:1.41421;"><g><path d="M956.566,588.281l-837.472,0c-13.431,0 -24.319,-10.887 -24.319,-24.315l0,-539.647c0,-13.431 10.888,-24.319 24.319,-24.319l837.472,0c13.431,0 24.315,10.888 24.315,24.319l0,539.647c0,13.428 -10.884,24.315 -24.315,24.315Z" style="fill:#282c36;fill-rule:nonzero;"/><rect x="0" y="572.6" width="1075.66" height="20.906" style="fill:#dfdfdd;fill-rule:nonzero;"/><path d="M1075.66,593.506l-1075.66,0c27.622,11.05 57.097,16.725 86.847,16.725l901.966,0c29.75,0 59.225,-5.675 86.85,-16.725Z" style="fill:#8a8c8f;fill-rule:nonzero;"/><rect x="128.053" y="58.291" width="819.553" height="468.316" style="fill:#2c4556;fill-rule:nonzero;"/><rect x="128.053" y="58.291" width="819.553" height="6.338" style="fill:#152733;fill-rule:nonzero;"/><path d="M984.281,583.053c0,-1.878 -1.522,-3.4 -3.4,-3.4c-1.875,0 -3.397,1.522 -3.397,3.4c0,1.878 1.522,3.4 3.397,3.4c1.878,0 3.4,-1.522 3.4,-3.4Z" style="fill:#1897d5;fill-rule:nonzero;"/><path d="M1000.74,583.053c0,-1.878 -1.525,-3.4 -3.4,-3.4c-1.878,0 -3.4,1.522 -3.4,3.4c0,1.878 1.522,3.4 3.4,3.4c1.875,0 3.4,-1.522 3.4,-3.4Z" style="fill:#5c5e61;fill-rule:nonzero;"/><path d="M1017.2,583.053c0,-1.878 -1.522,-3.4 -3.4,-3.4c-1.878,0 -3.4,1.522 -3.4,3.4c0,1.878 1.522,3.4 3.4,3.4c1.878,0 3.4,-1.522 3.4,-3.4Z" style="fill:#5c5e61;fill-rule:nonzero;"/><path d="M356.737,243.931l-113.2,0c-2.574,0 -4.665,-2.087 -4.665,-4.665l0,-17.444c0,-2.578 2.091,-4.669 4.665,-4.669l113.2,0c2.579,0 4.666,2.091 4.666,4.669l0,17.444c0,2.578 -2.087,4.665 -4.666,4.665Z" style="fill:#f5f6f7;fill-rule:nonzero;"/><path d="M305.006,284.1l-61.772,0c-2.409,0 -4.362,-1.953 -4.362,-4.362l0,-18.054c0,-2.409 1.953,-4.362 4.362,-4.362l61.772,0c2.41,0 4.363,1.953 4.363,4.362l0,18.054c0,2.409 -1.953,4.362 -4.363,4.362Z" style="fill:#dbd073;fill-rule:nonzero;"/><path d="M271.534,324.875l-28.3,0c-2.409,0 -4.362,-1.953 -4.362,-4.363l0,-18.053c0,-2.409 1.953,-4.362 4.362,-4.362l28.3,0c2.41,0 4.36,1.953 4.36,4.362l0,18.053c0,2.41 -1.95,4.363 -4.36,4.363Z" style="fill:#e28755;fill-rule:nonzero;"/><path d="M271.534,449.331l-28.3,0c-2.409,0 -4.362,-1.953 -4.362,-4.362l0,-18.053c0,-2.41 1.953,-4.363 4.362,-4.363l28.3,0c2.41,0 4.36,1.953 4.36,4.363l0,18.053c0,2.409 -1.95,4.362 -4.36,4.362Z" style="fill:#e28755;fill-rule:nonzero;"/><path d="M704.903,409.772l-99.353,0c-2.409,0 -4.359,-1.953 -4.359,-4.36l0,-18.056c0,-2.409 1.95,-4.362 4.359,-4.362l99.353,0c2.409,0 4.363,1.953 4.363,4.362l0,18.056c0,2.407 -1.954,4.36 -4.363,4.36Z" style="fill:#e28755;fill-rule:nonzero;"/><path d="M902.822,409.772l-33.344,0c-2.409,0 -4.362,-1.953 -4.362,-4.36l0,-18.056c0,-2.409 1.953,-4.362 4.362,-4.362l33.344,0c2.409,0 4.362,1.953 4.362,4.362l0,18.056c0,2.407 -1.953,4.36 -4.362,4.36Z" style="fill:#f5f6f7;fill-rule:nonzero;"/><path d="M575.325,409.772l-30.381,0c-2.407,0 -4.36,-1.953 -4.36,-4.36l0,-18.056c0,-2.409 1.953,-4.362 4.36,-4.362l30.381,0c2.409,0 4.359,1.953 4.359,4.362l0,18.056c0,2.407 -1.95,4.36 -4.359,4.36Z" style="fill:#64b045;fill-rule:nonzero;"/><path d="M844.778,409.772l-113.147,0c-2.409,0 -4.362,-1.953 -4.362,-4.36l0,-18.056c0,-2.409 1.953,-4.362 4.362,-4.362l113.147,0c2.41,0 4.363,1.953 4.363,4.362l0,18.056c0,2.407 -1.953,4.36 -4.363,4.36Z" style="fill:#4b82c3;fill-rule:nonzero;"/><path d="M304.6,367.172l-61.366,0c-2.409,0 -4.362,-1.953 -4.362,-4.363l0,-18.053c0,-2.409 1.953,-4.362 4.362,-4.362l61.366,0c2.409,0 4.362,1.953 4.362,4.362l0,18.053c0,2.41 -1.953,4.363 -4.362,4.363Z" style="fill:#e28755;fill-rule:nonzero;"/><path d="M357.55,324.875l-58.934,0c-2.41,0 -4.363,-1.953 -4.363,-4.363l0,-18.053c0,-2.409 1.953,-4.362 4.363,-4.362l58.934,0c2.409,0 4.359,1.953 4.359,4.362l0,18.053c0,2.41 -1.95,4.363 -4.359,4.363Z" style="fill:#f5f6f7;fill-rule:nonzero;"/><path d="M513.906,409.772l-200.684,0c-2.41,0 -4.363,-1.953 -4.363,-4.36l0,-18.056c0,-2.409 1.953,-4.362 4.363,-4.362l200.684,0c2.41,0 4.363,1.953 4.363,4.362l0,18.056c0,2.407 -1.953,4.36 -4.363,4.36Z" style="fill:#f5f6f7;fill-rule:nonzero;"/><path d="M495.65,324.875l-112.184,0c-2.41,0 -4.363,-1.953 -4.363,-4.363l0,-18.053c0,-2.409 1.953,-4.362 4.363,-4.362l112.184,0c2.409,0 4.359,1.953 4.359,4.362l0,18.053c0,2.41 -1.95,4.363 -4.359,4.363Z" style="fill:#4b82c3;fill-rule:nonzero;"/><path d="M371.85,201.534l-194.141,0c-2.409,0 -4.362,-1.953 -4.362,-4.362l0,-18.053c0,-2.41 1.953,-4.363 4.362,-4.363l194.141,0c2.409,0 4.363,1.953 4.363,4.363l0,18.053c0,2.409 -1.954,4.362 -4.363,4.362Z" style="fill:#4b82c3;fill-rule:nonzero;"/><path d="M427.031,284.1l-95.853,0c-2.409,0 -4.362,-1.953 -4.362,-4.362l0,-18.054c0,-2.409 1.953,-4.362 4.362,-4.362l95.853,0c2.41,0 4.36,1.953 4.36,4.362l0,18.054c0,2.409 -1.95,4.362 -4.36,4.362Z" style="fill:#f5f6f7;fill-rule:nonzero;"/><path d="M416.784,243.931l-40.165,0c-2.578,0 -4.666,-2.087 -4.666,-4.665l0,-17.444c0,-2.578 2.088,-4.669 4.666,-4.669l40.165,0c2.578,0 4.669,2.091 4.669,4.669l0,17.444c0,2.578 -2.091,4.665 -4.669,4.665Z" style="fill:#64ad45;fill-rule:nonzero;"/><path d="M184.678,122.034l5.478,0l0.878,-5.406l-5.481,0l-0.875,5.406Zm-5.591,10.082l0.954,-6.1l-5.044,0l0.622,-3.982l5.04,0l0.878,-5.406l-5.04,0l0.584,-3.981l5.075,0l0.988,-6.1l4.018,0l-0.987,6.1l5.478,0l0.988,-6.1l3.981,0l-0.95,6.1l5.075,0l-0.656,3.981l-5.041,0l-0.875,5.406l5.078,0l-0.622,3.982l-5.078,0l-0.987,6.1l-3.982,0l0.988,-6.1l-5.516,0l-0.947,6.1l-4.022,0Z" style="fill:#fff;fill-rule:nonzero;"/><path d="M208.156,106.547l7.013,0l-3.835,17.059l-4.712,0l1.534,-17.059Zm-0.072,19.578c1.754,0 3.175,1.425 3.175,3.216c0,1.753 -1.421,3.175 -3.175,3.175c-1.753,0 -3.178,-1.422 -3.178,-3.175c0,-1.791 1.425,-3.216 3.178,-3.216Z" style="fill:#fff;fill-rule:nonzero;"/><path d="M213.959,137.228l20.747,-34.04l5.297,0l-20.784,34.04l-5.26,0Z" style="fill:#fff;fill-rule:nonzero;"/><path d="M246.353,120.572l-0.769,4.859c0.732,1.425 2.594,2.666 4.603,2.666c1.463,0 2.704,-0.547 3.725,-1.606c1.022,-1.097 1.535,-2.447 1.535,-4.054c0,-2.74 -1.791,-4.531 -4.381,-4.531c-1.866,0 -3.691,1.097 -4.713,2.666Zm-1.828,11.544l-5.15,0l4.056,-25.569l5.15,0l-1.534,9.462c1.644,-1.718 3.65,-2.597 6.062,-2.597c2.3,0 4.129,0.807 5.516,2.451c1.388,1.643 2.081,3.653 2.081,6.062c0,2.813 -0.875,5.294 -2.665,7.45c-1.753,2.156 -4.091,3.216 -6.975,3.216c-2.816,0 -5.116,-1.388 -6.175,-2.888l-0.366,2.413Z" style="fill:#fff;fill-rule:nonzero;"/><path d="M270.891,105.963c1.715,0 3.103,1.349 3.103,3.103c0,1.718 -1.388,3.068 -3.103,3.068c-1.716,0 -3.069,-1.35 -3.069,-3.068c0,-1.754 1.353,-3.103 3.069,-3.103Zm-0.988,26.153l-5.15,0l2.85,-18.228l5.15,0l-2.85,18.228Z" style="fill:#fff;fill-rule:nonzero;"/><path d="M294.922,132.116l-5.15,0l1.459,-9.132c0.11,-0.915 0.185,-1.5 0.185,-1.828c0,-1.934 -1.278,-3.031 -3.032,-3.031c-1.718,0 -3.397,1.022 -4.309,2.447l-1.9,11.544l-5.15,0l2.847,-18.228l5.15,0l-0.328,2.121c1.643,-1.718 3.653,-2.597 6.1,-2.597c3.69,0 5.953,2.413 5.953,6.066c0,0.694 -0.072,1.569 -0.256,2.628l-1.569,10.01Z" style="fill:#fff;fill-rule:nonzero;"/><path d="M297.178,137.228l20.747,-34.04l5.297,0l-20.785,34.04l-5.259,0Z" style="fill:#fff;fill-rule:nonzero;"/><path d="M329.572,120.572l-0.766,4.859c0.728,1.425 2.594,2.666 4.6,2.666c1.463,0 2.703,-0.547 3.728,-1.606c1.022,-1.097 1.532,-2.447 1.532,-4.054c0,-2.74 -1.788,-4.531 -4.382,-4.531c-1.862,0 -3.69,1.097 -4.712,2.666Zm-1.825,11.544l-5.15,0l4.053,-25.569l5.15,0l-1.534,9.462c1.643,-1.718 3.653,-2.597 6.062,-2.597c2.303,0 4.128,0.807 5.516,2.451c1.387,1.643 2.081,3.653 2.081,6.062c0,2.813 -0.875,5.294 -2.666,7.45c-1.753,2.156 -4.09,3.216 -6.975,3.216c-2.812,0 -5.115,-1.388 -6.175,-2.888l-0.362,2.413Z" style="fill:#fff;fill-rule:nonzero;"/><path d="M360.319,124.919c-1.06,-0.728 -2.41,-1.094 -4.019,-1.094c-2.191,0 -3.763,0.913 -3.763,2.666c0,1.459 1.279,2.19 3.216,2.19c1.644,0 3.325,-0.803 4.2,-1.862l0.366,-1.9Zm6.94,3.14l-0.584,3.728c-0.694,0.438 -1.606,0.657 -2.703,0.657c-2.228,0 -3.544,-0.766 -3.947,-2.266c-1.644,1.609 -3.688,2.413 -6.063,2.413c-3.981,0 -6.537,-2.338 -6.537,-5.663c0,-2.009 0.731,-3.578 2.191,-4.712c1.5,-1.132 3.287,-1.716 5.368,-1.716c2.157,0 4.094,0.475 5.81,1.387c0.109,-0.693 0.147,-1.131 0.147,-1.315c0,-1.972 -1.535,-2.956 -4.641,-2.956c-1.9,0 -3.725,0.4 -5.478,1.24l0.656,-4.275c1.791,-0.765 3.947,-1.169 6.394,-1.169c2.375,0 4.309,0.513 5.881,1.572c1.569,1.06 2.338,2.666 2.338,4.894c0,0.55 -0.075,1.278 -0.257,2.191l-0.584,3.543c-0.109,0.732 -0.181,1.207 -0.181,1.425c0,0.804 0.437,1.207 1.275,1.207c0.293,0 0.584,-0.072 0.915,-0.185Z" style="fill:#fff;fill-rule:nonzero;"/><path d="M387.669,119.769c-2.01,-1.46 -4.166,-2.191 -6.538,-2.191c-1.937,0 -2.922,0.475 -2.922,1.459c0,0.404 0.219,0.769 0.694,1.025c0.475,0.254 1.534,0.622 3.25,1.132c3.653,1.059 5.444,2.631 5.444,5.259c0,2.01 -0.841,3.506 -2.484,4.566c-1.644,1.059 -3.582,1.572 -5.81,1.572c-3.103,0 -6.39,-0.879 -8.253,-2.157l0.656,-4.347c1.572,1.169 4.347,2.3 7.525,2.3c2.081,0 3.103,-0.509 3.103,-1.568c0,-0.475 -0.328,-0.875 -1.203,-1.207c-0.84,-0.4 -1.206,-0.474 -2.412,-0.874c-3.944,-1.169 -5.916,-2.632 -5.916,-5.116c0,-2.006 0.766,-3.544 2.338,-4.6c1.571,-1.059 3.506,-1.61 5.809,-1.61c2.994,0 5.478,0.697 7.413,2.082l-0.694,4.275Z" style="fill:#fff;fill-rule:nonzero;"/><path d="M410.162,132.116l-5.149,0l1.462,-9.132c0.106,-0.915 0.181,-1.5 0.181,-1.828c0,-1.934 -1.281,-3.031 -3.034,-3.031c-1.716,0 -3.394,1.022 -4.306,2.447l-1.904,11.544l-5.146,0l4.053,-25.569l5.15,0l-1.535,9.462c1.644,-1.718 3.65,-2.597 6.1,-2.597c3.691,0 5.953,2.413 5.953,6.066c0,0.694 -0.071,1.569 -0.256,2.628l-1.569,10.01Z" style="fill:#fff;fill-rule:nonzero;"/><rect x="0" y="580.441" width="968.578" height="5.228" style="fill:#282c36;fill-rule:nonzero;"/><rect x="1025.68" y="580.441" width="49.984" height="5.228" style="fill:#282c36;fill-rule:nonzero;"/><path d="M330.763,846.912c0,-0.665 0.25,-1.296 0.746,-1.896c0.5,-0.6 1.016,-0.9 1.55,-0.9c0.4,0 1.004,0.434 1.803,1.3l2.697,2.9c1.003,1.065 2.619,2.034 4.853,2.9c2.232,0.868 4.816,1.3 7.751,1.3c5.131,0 9.062,-1.266 11.796,-3.804c2.735,-2.531 4.1,-6.259 4.1,-11.2c0,-3.728 -0.834,-6.828 -2.497,-9.296c-1.668,-2.466 -3.737,-4.235 -6.203,-5.3c-2.465,-1.066 -5.15,-2.166 -8.047,-3.3c-2.903,-1.129 -5.587,-2.25 -8.053,-3.347c-2.465,-1.103 -4.531,-2.919 -6.196,-5.453c-1.669,-2.532 -2.501,-5.735 -2.501,-9.6c0,-3.466 0.632,-6.416 1.9,-8.85c1.263,-2.435 2.963,-4.266 5.097,-5.5c2.135,-1.232 4.285,-2.097 6.45,-2.6c2.166,-0.5 4.485,-0.75 6.953,-0.75c3.997,0 7.713,0.587 11.147,1.753c3.435,1.165 5.15,2.484 5.15,3.947c0,0.6 -0.231,1.234 -0.696,1.9c-0.469,0.668 -1.004,1 -1.6,1c-0.335,0 -1.069,-0.316 -2.204,-0.954c-1.131,-0.631 -2.746,-1.262 -4.847,-1.896c-2.103,-0.635 -4.453,-0.954 -7.053,-0.954c-4.331,0 -7.965,0.954 -10.896,2.85c-2.935,1.904 -4.404,5.122 -4.404,9.654c0,2.734 0.619,5.015 1.853,6.856c1.232,1.831 2.832,3.247 4.797,4.244c1.969,1 4.135,1.9 6.5,2.696c2.369,0.807 4.75,1.707 7.15,2.707c2.4,0.997 4.585,2.231 6.553,3.697c1.966,1.465 3.566,3.55 4.797,6.25c1.235,2.696 1.853,5.95 1.853,9.746c0,6.804 -1.853,11.888 -5.55,15.254c-3.7,3.365 -8.65,5.046 -14.85,5.046c-5.737,0 -10.484,-1.231 -14.249,-3.696c-3.769,-2.466 -5.65,-4.7 -5.65,-6.704Z" style="fill:#030404;fill-rule:nonzero;"/><path d="M383.159,854.516l0,-72.3c0,-0.6 0.235,-1.097 0.7,-1.5c0.466,-0.4 1.035,-0.6 1.7,-0.6c0.735,0 1.335,0.2 1.8,0.6c0.466,0.403 0.7,0.9 0.7,1.5l0,34.306c1.135,-2.141 2.85,-3.941 5.15,-5.406c2.3,-1.463 5.016,-2.2 8.15,-2.2c4.866,0 9.066,1.8 12.6,5.4c3.535,3.6 5.3,7.9 5.3,12.903l0,27.297c0,1.468 -0.834,2.2 -2.5,2.2c-1.6,0 -2.397,-0.732 -2.397,-2.2l0,-27.297c0,-3.535 -1.337,-6.703 -4.003,-9.507c-2.665,-2.793 -5.8,-4.193 -9.4,-4.193c-3.396,0 -6.4,1.247 -8.996,3.747c-2.604,2.5 -3.904,5.815 -3.904,9.953l0,27.297c0,0.534 -0.25,1.034 -0.75,1.496c-0.5,0.472 -1.084,0.704 -1.75,0.704c-0.665,0 -1.234,-0.213 -1.7,-0.65c-0.465,-0.435 -0.7,-0.95 -0.7,-1.55Z" style="fill:#030404;fill-rule:nonzero;"/><path d="M436.059,830.616l21.3,0c2.266,0 3.766,-0.232 4.5,-0.7c0.735,-0.466 1.1,-1.435 1.1,-2.9c0,-3.535 -1.265,-6.7 -3.8,-9.497c-2.534,-2.8 -5.734,-4.203 -9.6,-4.203c-3.734,0 -6.915,1.296 -9.546,3.896c-2.638,2.601 -3.954,5.704 -3.954,9.304l0,4.1Zm-4.9,8.196l0,-11.896c0,-4.932 1.8,-9.166 5.403,-12.697c3.597,-3.538 7.932,-5.303 12.997,-5.303c4.907,0 9.15,1.734 12.732,5.2c3.578,3.465 5.368,7.765 5.368,12.9c0,1.8 -0.215,3.25 -0.646,4.353c-0.432,1.097 -1.113,1.881 -2.044,2.35c-0.931,0.462 -1.778,0.747 -2.544,0.847c-0.763,0.096 -1.841,0.15 -3.237,0.15l-23.129,0l0,4.203c0,4.197 1.5,7.565 4.5,10.097c3,2.537 6.869,3.8 11.6,3.8c2.394,0 4.425,-0.335 6.088,-1c1.662,-0.666 2.928,-1.332 3.794,-2c0.865,-0.666 1.531,-0.997 1.997,-0.997c0.587,0 1.109,0.265 1.565,0.797c0.456,0.531 0.688,1.065 0.688,1.6c0,1.265 -1.378,2.6 -4.132,3.996c-2.75,1.404 -6.153,2.1 -10.2,2.1c-6.134,0 -11.134,-1.696 -15,-5.093c-3.865,-3.4 -5.8,-7.869 -5.8,-13.407Z" style="fill:#030404;fill-rule:nonzero;"/><path d="M479.859,854.516l0,-72.3c0,-0.6 0.232,-1.097 0.7,-1.5c0.466,-0.4 1.032,-0.6 1.7,-0.6c0.732,0 1.332,0.2 1.8,0.6c0.466,0.403 0.7,0.9 0.7,1.5l0,72.3c0,0.534 -0.25,1.034 -0.75,1.496c-0.5,0.472 -1.084,0.704 -1.75,0.704c-0.668,0 -1.234,-0.213 -1.7,-0.65c-0.468,-0.435 -0.7,-0.95 -0.7,-1.55Z" style="fill:#030404;fill-rule:nonzero;"/><path d="M500.559,854.516l0,-72.3c0,-0.6 0.232,-1.097 0.697,-1.5c0.469,-0.4 1.035,-0.6 1.7,-0.6c0.731,0 1.335,0.2 1.8,0.6c0.469,0.403 0.7,0.9 0.7,1.5l0,72.3c0,0.534 -0.247,1.034 -0.747,1.496c-0.503,0.472 -1.087,0.704 -1.753,0.704c-0.665,0 -1.231,-0.213 -1.7,-0.65c-0.465,-0.435 -0.697,-0.95 -0.697,-1.55Z" style="fill:#030404;fill-rule:nonzero;"/><path d="M538.756,846.912c0,-0.665 0.25,-1.296 0.75,-1.896c0.503,-0.6 1.019,-0.9 1.55,-0.9c0.4,0 0.997,0.434 1.797,1.3l2.7,2.9c1.003,1.065 2.616,2.034 4.85,2.9c2.234,0.868 4.816,1.3 7.753,1.3c5.131,0 9.066,-1.266 11.8,-3.804c2.731,-2.531 4.1,-6.259 4.1,-11.2c0,-3.728 -0.834,-6.828 -2.5,-9.296c-1.665,-2.466 -3.737,-4.235 -6.203,-5.3c-2.466,-1.066 -5.147,-2.166 -8.05,-3.3c-2.9,-1.129 -5.581,-2.25 -8.047,-3.347c-2.468,-1.103 -4.534,-2.919 -6.2,-5.453c-1.668,-2.532 -2.5,-5.735 -2.5,-9.6c0,-3.466 0.631,-6.416 1.897,-8.85c1.269,-2.435 2.966,-4.266 5.103,-5.5c2.131,-1.232 4.281,-2.097 6.45,-2.6c2.166,-0.5 4.482,-0.75 6.947,-0.75c4,0 7.719,0.587 11.153,1.753c3.431,1.165 5.15,2.484 5.15,3.947c0,0.6 -0.234,1.234 -0.703,1.9c-0.465,0.668 -0.997,1 -1.597,1c-0.337,0 -1.069,-0.316 -2.2,-0.954c-1.137,-0.631 -2.75,-1.262 -4.85,-1.896c-2.1,-0.635 -4.45,-0.954 -7.05,-0.954c-4.337,0 -7.969,0.954 -10.9,2.85c-2.937,1.904 -4.403,5.122 -4.403,9.654c0,2.734 0.619,5.015 1.85,6.856c1.234,1.831 2.835,3.247 4.8,4.244c1.966,1 4.134,1.9 6.5,2.696c2.366,0.807 4.753,1.707 7.153,2.707c2.4,0.997 4.581,2.231 6.547,3.697c1.966,1.465 3.569,3.55 4.8,6.25c1.235,2.696 1.85,5.95 1.85,9.746c0,6.804 -1.85,11.888 -5.547,15.254c-3.703,3.365 -8.653,5.046 -14.85,5.046c-5.734,0 -10.487,-1.231 -14.253,-3.696c-3.762,-2.466 -5.647,-4.7 -5.647,-6.704Z" style="fill:#030404;fill-rule:nonzero;"/><path d="M589.456,838.812l0,-11.396c0,-5.466 1.582,-9.916 4.75,-13.35c3.163,-3.429 7.85,-5.15 14.05,-5.15c3.8,0 7,0.684 9.6,2.046c2.6,1.372 3.9,2.719 3.9,4.054c0,0.603 -0.234,1.146 -0.7,1.65c-0.469,0.503 -1,0.75 -1.6,0.75c-0.337,0 -0.918,-0.316 -1.75,-0.947c-0.834,-0.635 -2.05,-1.288 -3.65,-1.953c-1.6,-0.666 -3.5,-0.997 -5.7,-0.997c-4.468,0 -7.919,1.228 -10.35,3.693c-2.434,2.469 -3.65,5.869 -3.65,10.204l0,11.396c0,4.404 1.197,7.819 3.6,10.254c2.4,2.434 5.9,3.653 10.5,3.653c2.331,0 4.331,-0.338 6,-1.003c1.663,-0.666 2.935,-1.332 3.8,-2c0.863,-0.666 1.5,-1.004 1.9,-1.004c0.6,0 1.116,0.25 1.55,0.754c0.431,0.5 0.65,1.05 0.65,1.65c0,1.4 -1.35,2.787 -4.05,4.15c-2.703,1.368 -6.05,2.046 -10.05,2.046c-6.134,0 -10.8,-1.696 -14.003,-5.093c-3.197,-3.4 -4.797,-7.869 -4.797,-13.407Z" style="fill:#030404;fill-rule:nonzero;"/><path d="M632.756,854.516l0,-43c0,-1.335 0.8,-1.997 2.397,-1.997c0.666,0 1.234,0.181 1.7,0.55c0.469,0.365 0.703,0.85 0.703,1.447l0,5.1c1.2,-2.2 2.982,-4.035 5.35,-5.5c2.366,-1.463 5.116,-2.2 8.247,-2.2l3.603,0c0.597,0 1.113,0.215 1.55,0.65c0.432,0.437 0.65,0.984 0.65,1.65c0,0.665 -0.218,1.218 -0.65,1.65c-0.437,0.437 -0.953,0.653 -1.55,0.653l-3.603,0c-3.6,0 -6.75,1.347 -9.45,4.053c-2.697,2.694 -4.05,6.209 -4.05,10.544l0,26.4c0,0.534 -0.25,1.034 -0.747,1.496c-0.5,0.472 -1.087,0.704 -1.753,0.704c-0.669,0 -1.231,-0.213 -1.7,-0.65c-0.466,-0.435 -0.697,-0.95 -0.697,-1.55Z" style="fill:#030404;fill-rule:nonzero;"/><path d="M665.653,854.516l0,-43c0,-1.335 0.8,-1.997 2.4,-1.997c1.666,0 2.497,0.662 2.497,1.997l0,43c0,0.534 -0.25,1.034 -0.747,1.496c-0.5,0.472 -1.084,0.704 -1.75,0.704c-0.669,0 -1.234,-0.213 -1.7,-0.65c-0.469,-0.435 -0.7,-0.95 -0.7,-1.55Zm-1.4,-63.604c0,-0.931 0.366,-1.746 1.097,-2.446c0.737,-0.704 1.634,-1.05 2.703,-1.05c1,0 1.863,0.346 2.6,1.05c0.731,0.7 1.1,1.515 1.1,2.446c0,1.004 -0.369,1.869 -1.1,2.6c-0.737,0.741 -1.6,1.104 -2.6,1.104c-1.069,0 -1.966,-0.363 -2.703,-1.104c-0.731,-0.731 -1.097,-1.596 -1.097,-2.6Z" style="fill:#030404;fill-rule:nonzero;"/><path d="M689.653,842.212c0,1.935 1.334,4.169 4,6.704c2.669,2.531 5.7,3.803 9.1,3.803c3.534,0 6.631,-1.416 9.3,-4.257c2.666,-2.831 4,-6.046 4,-9.65l0,-11.593c0,-3.535 -1.35,-6.703 -4.05,-9.507c-2.7,-2.793 -5.85,-4.193 -9.45,-4.193c-3.4,0 -6.4,1.247 -9,3.747c-2.6,2.5 -3.9,5.815 -3.9,9.953l0,14.993Zm-4.9,35.804l0,-66.5c0,-1.335 0.8,-1.997 2.4,-1.997c0.666,0 1.231,0.181 1.7,0.55c0.466,0.365 0.703,0.85 0.703,1.447l0,5.006c2.866,-5.066 7.328,-7.606 13.397,-7.606c4.935,0 9.166,1.787 12.7,5.35c3.534,3.568 5.3,7.884 5.3,12.953l0,11.593c0,4.872 -1.784,9.169 -5.35,12.904c-3.565,3.737 -7.715,5.596 -12.45,5.596c-2.934,0 -5.634,-0.731 -8.1,-2.196c-2.469,-1.466 -4.265,-3.266 -5.4,-5.4l0,28.3c0,0.531 -0.25,1.031 -0.747,1.5c-0.503,0.465 -1.087,0.696 -1.753,0.696c-0.669,0 -1.234,-0.212 -1.7,-0.646c-0.466,-0.435 -0.7,-0.95 -0.7,-1.55Z" style="fill:#030404;fill-rule:nonzero;"/><path d="M733.05,842.416l0,-53.7c0,-0.6 0.253,-1.097 0.753,-1.5c0.5,-0.4 1.05,-0.6 1.65,-0.6c0.666,0 1.247,0.2 1.75,0.6c0.5,0.403 0.75,0.9 0.75,1.5l0,20.803l13.3,0c0.535,0 0.981,0.215 1.347,0.647c0.369,0.434 0.553,0.95 0.553,1.55c0,0.537 -0.2,1.022 -0.6,1.453c-0.4,0.431 -0.834,0.647 -1.3,0.647l-13.3,0l0,28.6c0,3.534 0.766,6.034 2.297,7.5c1.534,1.465 4.203,2.196 8.003,2.196l2.5,0c0.663,0 1.213,0.222 1.65,0.654c0.435,0.434 0.65,0.984 0.65,1.65c0,0.6 -0.215,1.134 -0.65,1.596c-0.437,0.472 -0.987,0.704 -1.65,0.704l-2.5,0c-10.134,0 -15.203,-4.766 -15.203,-14.3Z" style="fill:#030404;fill-rule:nonzero;"/></g></svg>